<svg xmlns="http://www.w3.org/2000/svg" viewBox="0 0 240 240" width="100%" height="100%">
  <defs>
    <linearGradient id="favShieldGrad" x1="0%" y1="100%" x2="100%" y2="0%">
      <stop offset="0%" stop-color="#1564c0" />
      <stop offset="40%" stop-color="#00b0ff" />
      <stop offset="100%" stop-color="#00e5ff" />
    </linearGradient>

    <filter id="favGlow" x="-20%" y="-20%" width="140%" height="140%">
      <feGaussianBlur stdDeviation="2" result="blur" />
      <feComposite in="SourceGraphic" in2="blur" operator="over" />
    </filter>
  </defs>

  <g transform="translate(-380, -95)">
    <path d="M 500,110 
             C 545,120 580,150 595,210 
             C 600,280 550,340 500,370 
             C 450,340 400,280 405,210 
             C 420,150 455,120 500,110 Z" 
          fill="none" stroke="url(#favShieldGrad)" stroke-width="7" stroke-linejoin="round" />

    <path d="M 500,128 
             C 535,137 562,162 575,210 
             C 578,255 548,310 500,345" 
          fill="none" stroke="url(#favShieldGrad)" stroke-width="3.5" opacity="0.7" />

    <g stroke="url(#favShieldGrad)" stroke-width="2.5" opacity="0.8" fill="none">
      <polygon points="500,155 550,185 565,240 535,295 465,295 435,240 450,185" />
      <line x1="500" y1="155" x2="500" y2="215" />
      <line x1="550" y1="185" x2="515" y2="225" />
      <line x1="565" y1="240" x2="530" y2="250" />
      <line x1="535" y1="295" x2="500" y2="275" />
      <line x1="465" y1="295" x2="500" y2="275" />
      <line x1="435" y1="240" x2="470" y2="250" />
      <line x1="450" y1="185" x2="485" y2="225" />
      
      <polygon points="500,215 530,225 530,250 500,275 470,250 470,225" stroke-width="3.5"/>
    </g>

    <path d="M 435,240 L 392,240" stroke="url(#favShieldGrad)" stroke-width="4.5" fill="none" />
    <path d="M 450,185 L 405,170 C 390,165 382,180 372,180" stroke="url(#favShieldGrad)" stroke-width="3.5" fill="none" />
    <path d="M 435,240 L 388,215" stroke="url(#favShieldGrad)" stroke-width="2.5" fill="none" />
    <path d="M 465,295 L 415,310 C 402,315 396,295 388,295" stroke="url(#favShieldGrad)" stroke-width="3" fill="none" />

    <g fill="#00e5ff" filter="url(#favGlow)">
      <circle cx="500" cy="155" r="6" />
      <circle cx="550" cy="185" r="6" />
      <circle cx="565" cy="240" r="6" />
      <circle cx="535" cy="295" r="6" />
      <circle cx="465" cy="295" r="6" />
      <circle cx="435" cy="240" r="6" />
      <circle cx="450" cy="185" r="6" />
      <circle cx="392" cy="240" r="5.5" fill="#00b0ff" />
      <circle cx="372" cy="180" r="5" />
      <circle cx="388" cy="215" r="4.5" />
      <circle cx="388" cy="295" r="5" fill="#1564c0" />
    </g>

    <path d="M 491,226 L 491,264 M 491,245 L 507,228 M 493,244 L 509,262" 
          stroke="#ffffff" stroke-width="4.5" stroke-linecap="round" stroke-linejoin="round"/>
  </g>
</svg>
